<svg width="45" height="40" viewBox="0 0 45 40" fill="none" xmlns="http://www.w3.org/2000/svg">
<g clip-path="url(#clip0_101_120)">
<path d="M22.492 8.75002C23.9451 8.75002 25.3201 9.04689 26.617 9.50001C27.656 8.69533 28.4607 7.60158 28.9217 6.32033C26.9529 5.46877 24.781 4.9922 22.4998 4.9922C20.2264 4.9922 18.0545 5.46095 16.0857 6.31252C16.5467 7.59377 17.3514 8.68752 18.3904 9.4922C19.6795 9.04689 21.0467 8.75002 22.492 8.75002V8.75002ZM12.781 34.2734C13.7185 33.3516 14.3748 32.2109 14.6951 30.9609C12.1248 28.8984 10.4139 25.8594 10.0935 22.3985C9.42948 22.1797 8.74979 22.0391 8.03104 22.0391C7.43729 22.0391 6.84354 22.1172 6.27323 22.2813C6.59354 27.1875 9.0701 31.5 12.781 34.2734V34.2734ZM30.2967 30.9453C30.617 32.1953 31.2732 33.3438 32.2107 34.2656C35.9138 31.4922 38.3904 27.1797 38.6951 22.2734C38.1326 22.1172 37.5467 22.0391 36.9607 22.0391C36.242 22.0391 35.5545 22.1875 34.8826 22.4063C34.5623 25.8594 32.8513 28.8828 30.2967 30.9453ZM39.1638 14.9297C37.7888 14.1172 36.3279 13.6328 34.8435 13.375C35.3123 11.9922 35.6248 10.5313 35.6248 8.98439C35.6248 5.78127 34.492 2.67189 32.4217 0.218767C32.2264 -0.0156083 31.906 -0.0702958 31.6404 0.0781417C31.3826 0.226579 31.2654 0.546892 31.3592 0.835954C31.7107 1.91408 31.8748 2.89064 31.8748 3.84377C31.8748 9.14064 27.6717 13.4453 22.4998 13.4453C17.3279 13.4453 13.1248 9.14064 13.1248 3.84377C13.1248 2.89845 13.2967 1.91408 13.6404 0.835954C13.7342 0.546892 13.617 0.226579 13.3592 0.0781417C13.0935 -0.0702958 12.7732 -0.0156083 12.5779 0.218767C10.5154 2.67189 9.37479 5.78127 9.37479 8.98439C9.37479 10.5313 9.67948 11.9922 10.156 13.375C8.67948 13.6328 7.21073 14.1172 5.83573 14.9297C3.1326 16.5313 1.0701 19.0938 0.0310381 22.1484C-0.0705244 22.4375 0.0466631 22.75 0.304476 22.9141C0.562288 23.0703 0.890413 23.0156 1.08573 22.7891C1.8201 21.9453 2.5701 21.2969 3.36698 20.8281C7.84354 18.1797 13.5857 19.7578 16.1717 24.3438C18.7576 28.9297 17.2185 34.8125 12.742 37.4609C11.9451 37.9375 11.0232 38.2734 9.9451 38.5078C9.65604 38.5703 9.4451 38.8359 9.4451 39.1406C9.45291 39.4531 9.65604 39.7109 9.95291 39.7656C13.0545 40.375 16.2498 39.8281 18.9529 38.2266C20.3592 37.3984 21.5232 36.3125 22.492 35.0938C23.4607 36.3125 24.6248 37.3984 26.031 38.2266C28.7342 39.8281 31.9295 40.375 35.031 39.7656C35.3279 39.7109 35.531 39.4531 35.5389 39.1406C35.5389 38.8359 35.3357 38.5703 35.0389 38.5078C33.9529 38.2813 33.0389 37.9375 32.242 37.4609C27.7654 34.8125 26.2263 28.9297 28.8123 24.3438C31.3982 19.7578 37.1404 18.1797 41.617 20.8281C42.4139 21.3047 43.1639 21.9453 43.8982 22.7891C44.0935 23.0156 44.4217 23.0703 44.6795 22.9141C44.9373 22.7578 45.0545 22.4375 44.9529 22.1484C43.9295 19.0938 41.867 16.5235 39.1638 14.9297V14.9297ZM22.492 25.0078C20.4217 25.0078 18.742 23.3281 18.742 21.2578C18.742 19.1875 20.4217 17.5078 22.492 17.5078C24.5623 17.5078 26.242 19.1875 26.242 21.2578C26.242 23.3281 24.5623 25.0078 22.492 25.0078Z" fill="white"/>
</g>
<defs>
<clipPath id="clip0_101_120">
<rect width="45" height="40" fill="white"/>
</clipPath>
</defs>
</svg>
